Coordinates
version=1
nRows=8
nColumns=46
inDegrees=yes

Units are S.I. units (second, meters, Newtons, ...)
Angles are in degrees.

endheader
time	pelvis_tilt	pelvis_list	pelvis_rotation	pelvis_tx	pelvis_ty	pelvis_tz	bb_angle	bb_tx	bb_ty	bb_tz	hip_flexion_r	hip_adduction_r	hip_rotation_r	knee_angle_r	knee_angle_r_beta	ankle_angle_r	subtalar_angle_r	mtp_angle_r	crank_angle_r	hip_flexion_l	hip_adduction_l	hip_rotation_l	knee_angle_l	knee_angle_l_beta	ankle_angle_l	subtalar_angle_l	mtp_angle_l	crank_angle_l	lumbar_extension	lumbar_bending	lumbar_rotation	arm_flex_r	arm_add_r	arm_rot_r	elbow_flex_r	pro_sup_r	wrist_flex_r	wrist_dev_r	arm_flex_l	arm_add_l	arm_rot_l	elbow_flex_l	pro_sup_l	wrist_flex_l	wrist_dev_l
      0.00000000	    -17.93291279	     -0.27556673	     -1.15555836	      0.17252906	      1.02826275	     -0.31750340	      0.00000000	      0.50000000	      0.00000000	      0.25000000	     90.05535827	     -3.11753056	      4.81385611	     88.59541600	      1.54628171	      8.90589177	     -5.50088472	      0.00000000	      0.00000000	     60.18746818	     -8.39913013	     -0.91704418	     78.76194200	      1.37465521	    -15.95297167	    -11.55988030	      0.00000000	      0.00000000	    -89.86944587	     18.82112214	     -9.44960063	     76.82929209	     89.76413374	      3.76490320	     89.34511650	     17.59892152	      0.00000000	      0.00000000	     71.56261178	   -118.01217434	     12.84613729	    106.98776512	     37.95087753	      0.00000000	      0.00000000
      0.00500000	    -17.92983241	     -0.16944948	     -1.16316884	      0.17261500	      1.02832551	     -0.31756923	      0.00000000	      0.50000000	      0.00000000	      0.25000000	     90.06802783	     -3.15123483	      4.92567479	     88.60966286	      1.54653037	      8.92479123	     -5.40428671	      0.00000000	      0.00000000	     60.12365112	     -8.31888022	     -1.02755596	     78.69878348	      1.37355289	    -16.02459366	    -11.73850676	      0.00000000	      0.00000000	    -89.86996466	     18.88914399	     -9.77582453	     78.09770003	     89.74709938	      2.83489698	     88.99340081	     18.74676292	      0.00000000	      0.00000000	     72.97909617	   -118.27547305	     14.05133822	    107.09886704	     39.88626055	      0.00000000	      0.00000000
      0.01000000	    -17.94498847	     -0.16744591	     -1.15338344	      0.17256303	      1.02829218	     -0.31755464	      0.00000000	      0.50000000	      0.00000000	      0.25000000	     90.09427942	     -3.15994289	      4.92324228	     88.61911615	      1.54669536	      8.91873788	     -5.39004603	      0.00000000	      0.00000000	     60.14307045	     -8.30817141	     -1.01860089	     78.68674620	      1.37334280	    -16.04261794	    -11.76020127	      0.00000000	      0.00000000	    -89.87021966	     18.86463408	     -9.76167793	     67.23090958	     89.82791260	     13.78439442	     89.61368173	     16.42183970	      0.00000000	      0.00000000	     72.38257397	   -118.26461840	     11.89454619	    104.73370587	     53.98853732	      0.00000000	      0.00000000
      0.01500000	    -17.99761317	     -0.16975898	     -1.30985140	      0.17257021	      1.02813086	     -0.31770730	      0.00000000	      0.50000000	      0.00000000	      0.25000000	     90.07583827	     -3.01605016	      4.95710524	     88.59281100	      1.54623625	      9.18866887	     -5.33387879	      0.00000000	      0.00000000	     60.18555955	     -8.42249767	     -1.09632753	     78.73055652	      1.37410743	    -15.96178099	    -11.67849896	      0.00000000	      0.00000000	    -89.86842906	     18.74891384	     -9.64074159	     67.50970487	     89.82974956	     13.48008737	     89.49046869	     17.03275167	      0.00000000	      0.00000000	     72.04828348	   -118.18655287	     11.52204122	    104.52329737	     53.76241612	      0.00000000	      0.00000000
      0.02000000	    -17.99701264	     -0.23051293	     -1.36290702	      0.17237679	      1.02832422	     -0.31725676	      0.00000000	      0.50000000	      0.00000000	      0.25000000	     90.07635273	     -2.91252185	      4.92130867	     88.62445294	      1.54678850	      9.24867425	     -5.34638915	      0.00000000	      0.00000000	     60.20727668	     -8.52208085	     -1.02775338	     78.73922445	      1.37425872	    -15.97182190	    -11.59907451	      0.00000000	      0.00000000	    -89.86879265	     18.64903119	     -9.50233719	     67.75861207	     89.82904143	     13.06540799	     89.31954557	     17.96211885	      0.00000000	      0.00000000	     71.55176440	   -118.00634291	     10.99878672	    104.32125551	     53.42450377	      0.00000000	      0.00000000
      0.02500000	    -18.01447865	     -0.10484262	     -1.38220573	      0.17245760	      1.02852783	     -0.31720584	      0.00000000	      0.50000000	      0.00000000	      0.25000000	     90.11511774	     -2.93273938	      5.03023860	     88.62572294	      1.54681067	      9.15643894	     -5.30299215	      0.00000000	      0.00000000	     60.13323474	     -8.46552329	     -1.20842933	     78.60868142	      1.37198031	    -16.03768830	    -11.76721425	      0.00000000	      0.00000000	    -89.86932238	     18.62538835	     -9.70668805	     68.31363718	     89.82481112	     12.74843869	     89.38167014	     18.06166351	      0.00000000	      0.00000000	     71.89293146	   -118.24047863	     11.44903591	    104.74207343	     53.42240192	      0.00000000	      0.00000000
      0.03000000	    -18.01885547	     -0.18626937	     -1.38431073	      0.17243447	      1.02849600	     -0.31718216	      0.00000000	      0.50000000	      0.00000000	      0.25000000	     90.09968647	     -2.89950391	      4.98540552	     88.61311594	      1.54659063	      9.19818923	     -5.22972203	      0.00000000	      0.00000000	     60.17012808	     -8.51613049	     -1.11831258	     78.64647110	      1.37263987	    -16.02695918	    -11.72776834	      0.00000000	      0.00000000	    -89.86846509	     18.70945796	     -9.68780350	     74.83282836	     89.78097313	      6.26474009	     89.58624766	     15.99476788	      0.00000000	      0.00000000	     72.74341424	   -118.25425828	     12.43937152	    105.01062129	     52.21946900	      0.00000000	      0.00000000
      0.03500000	    -18.03041049	     -0.20521624	     -1.40145690	      0.17249045	      1.02845465	     -0.31729775	      0.00000000	      0.50000000	      0.00000000	      0.25000000	     90.11883846	     -2.90355856	      4.95793993	     88.62913555	      1.54687023	      9.20587329	     -5.23118740	      0.00000000	      0.00000000	     60.18148514	     -8.52524296	     -1.11099881	     78.65357524	      1.37276386	    -16.03596144	    -11.75547105	      0.00000000	      0.00000000	    -89.86830813	     18.68498439	     -9.64420280	     74.79082960	     89.78168907	      6.26475153	     89.48647149	     16.90030727	      0.00000000	      0.00000000	     72.42594218	   -118.24815380	     12.09422022	    104.99027390	     52.04356067	      0.00000000	      0.00000000
